#!OML:ASF C:\Vicon Data\Big\jianyuan-13\jianyuan\Session 1\Capture.male.ASF
:FULLY-SPECIFIED
:DEGREES
223
root -6.837634 17.661024 -0.455450 5.813256 5.426700 3.918865
lowerback -10.353513 -3.295753 -6.138324 
upperback 1.478255 -3.602561 0.026113 
thorax 7.784047 -2.023207 2.858597 
lowerneck 0.455655 0.934916 3.460110 
upperneck -1.440317 1.213643 -4.972453 
head -0.472136 0.619217 -2.156171 
rclavicle 0.000000 0.000000 
rhumerus -52.070505 -15.696363 -76.650569 
rradius 31.627195 
rwrist 26.615704 
rhand -17.181127 -17.681733 
rfingers 0.000000 
rthumb 9.060561 -47.467162 
lclavicle 0.000000 0.000000 
lhumerus -12.453270 1.642728 91.349732 
lradius 48.952328 
lwrist -25.346075 
lhand -20.314509 2.251580 
lfingers 0.000000 
lthumb 6.036178 32.145605 
rfemur -55.646839 -3.417319 12.793881 
rtibia 47.611123 
rfoot -6.009905 -1.648635 
rtoes -36.994915 
lfemur 1.364896 -4.152528 -28.839133 
ltibia 16.806361 
lfoot -16.157786 -0.707665 
ltoes -31.208506 
224
root -6.840626 17.647288 -0.377683 5.866022 5.621832 3.953325
lowerback -10.429684 -3.383834 -6.112755 
upperback 1.400338 -3.714208 -0.050481 
thorax 7.747742 -2.071596 2.741171 
lowerneck 0.528560 0.974259 3.675310 
upperneck -1.396390 1.269641 -5.134216 
head -0.466628 0.647747 -2.249019 
rclavicle 0.000000 0.000000 
rhumerus -52.194152 -15.791492 -76.708036 
rradius 31.663458 
rwrist 26.321950 
rhand -17.218434 -17.805420 
rfingers 0.000000 
rthumb 9.024563 -47.592387 
lclavicle 0.000000 0.000000 
lhumerus -12.547330 1.281946 91.246332 
lradius 49.342407 
lwrist -25.031440 
lhand -20.272912 2.476255 
lfingers 0.000000 
lthumb 6.076327 32.369146 
rfemur -55.032732 -3.151136 12.488979 
rtibia 45.809211 
rfoot -6.070570 -2.022648 
rtoes -36.747518 
lfemur 1.689792 -4.207690 -28.832691 
ltibia 16.673379 
lfoot -16.336386 -0.859127 
ltoes -30.925604 
225
root -6.848896 17.626982 -0.295630 5.903423 5.765490 3.980030
lowerback -10.483407 -3.455179 -6.281828 
upperback 1.292133 -3.790824 0.009234 
thorax 7.686145 -2.113660 2.885737 
lowerneck 0.679730 0.989097 3.618459 
upperneck -1.348440 1.294050 -5.164620 
head -0.476574 0.662118 -2.249717 
rclavicle 0.000000 0.000000 
rhumerus -52.421595 -15.968726 -76.471147 
rradius 31.689754 
rwrist 26.481365 
rhand -17.220575 -17.778916 
rfingers 0.000000 
rthumb 9.022536 -47.565917 
lclavicle 0.000000 0.000000 
lhumerus -12.726605 1.077597 91.352008 
lradius 49.727403 
lwrist -24.727855 
lhand -20.283401 2.482276 
lfingers 0.000000 
lthumb 6.066255 32.375383 
rfemur -54.413573 -2.635425 12.139903 
rtibia 44.014093 
rfoot -6.212769 -2.626651 
rtoes -37.304957 
lfemur 2.032647 -4.236185 -28.809648 
ltibia 16.527959 
lfoot -16.542811 -0.916108 
ltoes -31.084399 
226
root -6.851904 17.611321 -0.215186 5.955231 5.925841 4.037275
lowerback -10.548797 -3.498122 -6.430521 
upperback 1.189876 -3.829578 0.049017 
thorax 7.631064 -2.136004 3.003887 
lowerneck 0.809938 0.975794 3.642237 
upperneck -1.301933 1.280125 -5.285097 
head -0.484421 0.657267 -2.294635 
rclavicle 0.000000 0.000000 
rhumerus -52.576270 -16.099161 -76.251692 
rradius 31.638788 
rwrist 26.430074 
rhand -17.430880 -18.007702 
rfingers 0.000000 
rthumb 8.819549 -47.803418 
lclavicle 0.000000 0.000000 
lhumerus -12.873508 0.620849 91.479369 
lradius 50.074349 
lwrist -24.177933 
lhand -20.227626 2.487340 
lfingers 0.000000 
lthumb 6.120066 32.378905 
rfemur -53.794256 -2.309717 11.820163 
rtibia 42.237182 
rfoot -6.289235 -3.190293 
rtoes -37.361869 
lfemur 2.351022 -4.188403 -28.822314 
ltibia 16.409677 
lfoot -16.679262 -1.065809 
ltoes -31.126382 
227
root -6.853849 17.595167 -0.133298 6.054626 6.094027 4.053654
lowerback -10.642908 -3.560357 -6.414890 
upperback 1.065034 -3.908994 0.022159 
thorax 7.555590 -2.168383 2.951308 
lowerneck 0.948270 0.996908 3.787278 
upperneck -1.277453 1.313008 -5.431174 
head -0.497646 0.675666 -2.370676 
rclavicle 0.000000 0.000000 
rhumerus -52.773040 -16.335812 -76.104491 
rradius 31.618047 
rwrist 26.369309 
rhand -17.592695 -17.888930 
rfingers 0.000000 
rthumb 8.663402 -47.691176 
lclavicle 0.000000 0.000000 
lhumerus -13.018879 0.481121 91.502370 
lradius 50.376103 
lwrist -24.018455 
lhand -20.047723 2.390272 
lfingers 0.000000 
lthumb 6.293724 32.276758 
rfemur -53.205999 -1.924838 11.510780 
rtibia 40.498823 
rfoot -6.415058 -3.793035 
rtoes -37.239601 
lfemur 2.624781 -4.205455 -28.799188 
ltibia 16.284425 
lfoot -16.821238 -1.129802 
ltoes -31.448740 
228
root -6.858807 17.576229 -0.049979 6.053977 6.282365 4.101146
lowerback -10.659315 -3.621341 -6.561226 
upperback 0.989155 -3.977284 0.093777 
thorax 7.506915 -2.206354 3.098023 
lowerneck 0.965555 0.996122 3.725586 
upperneck -1.183334 1.313028 -5.577916 
head -0.470724 0.676649 -2.407486 
rclavicle 0.000000 0.000000 
rhumerus -52.936184 -16.394815 -75.893152 
rradius 31.739786 
rwrist 26.147057 
rhand -17.514857 -18.072514 
rfingers 0.000000 
rthumb 8.738535 -47.871561 
lclavicle 0.000000 0.000000 
lhumerus -13.136855 0.158585 91.667782 
lradius 50.675782 
lwrist -23.712261 
lhand -20.012191 2.530543 
lfingers 0.000000 
lthumb 6.328063 32.416025 
rfemur -52.548792 -1.629097 11.235843 
rtibia 38.828476 
rfoot -6.432948 -4.257594 
rtoes -38.103954 
lfemur 3.030074 -4.222926 -28.805283 
ltibia 16.135138 
lfoot -16.964556 -1.188540 
ltoes -31.906295 
229
root -6.859689 17.557728 0.031294 6.176645 6.415014 4.180297
lowerback -10.803183 -3.672105 -6.626992 
upperback 0.892308 -4.027339 0.086833 
thorax 7.494557 -2.230134 3.113583 
lowerneck 1.094832 1.003535 3.713295 
upperneck -1.203366 1.324412 -5.652490 
head -0.498476 0.684810 -2.431393 
rclavicle 0.000000 0.000000 
rhumerus -53.040503 -16.587463 -75.717868 
rradius 31.666414 
rwrist 26.230297 
rhand -17.401225 -17.917304 
rfingers 0.000000 
rthumb 8.848206 -47.711805 
lclavicle 0.000000 0.000000 
lhumerus -13.254363 -0.163651 91.720997 
lradius 51.004805 
lwrist -23.308399 
lhand -20.017983 2.604217 
lfingers 0.000000 
lthumb 6.322473 32.489883 
rfemur -52.039707 -1.390080 10.945192 
rtibia 37.207430 
rfoot -6.527289 -4.755225 
rtoes -37.852821 
lfemur 3.291563 -4.311796 -28.869601 
ltibia 16.007624 
lfoot -17.116248 -1.175905 
ltoes -32.129746 
230
root -6.864362 17.538703 0.118582 6.198664 6.532622 4.233937
lowerback -10.829165 -3.696890 -6.783498 
upperback 0.787004 -4.045244 0.148500 
thorax 7.414573 -2.241927 3.265439 
lowerneck 1.228323 0.969684 3.695792 
upperneck -1.188950 1.281774 -5.732954 
head -0.518923 0.665942 -2.455832 
rclavicle 0.000000 0.000000 
rhumerus -53.268071 -16.687637 -75.468379 
rradius 31.703638 
rwrist 26.055771 
rhand -17.376104 -17.855548 
rfingers 0.000000 
rthumb 8.872421 -47.648984 
lclavicle 0.000000 0.000000 
lhumerus -13.412715 -0.386168 91.864198 
lradius 51.317724 
lwrist -23.217120 
lhand -19.784246 2.615973 
lfingers 0.000000 
lthumb 6.548085 32.494738 
rfemur -51.387914 -1.054004 10.697433 
rtibia 35.629495 
rfoot -6.625459 -5.463523 
rtoes -38.090095 
lfemur 3.680164 -4.370759 -28.901449 
ltibia 15.885662 
lfoot -17.300519 -1.220705 
ltoes -31.814080 
